<svg width="45" height="44" viewBox="0 0 45 44" fill="none" xmlns="http://www.w3.org/2000/svg">
<path fill-rule="evenodd" clip-rule="evenodd" d="M13.4299 0.132C15.7766 0.02444 16.5246 0 22.5 0C28.4766 0 29.2234 0.02566 31.5688 0.132C33.9118 0.23834 35.5118 0.61112 36.9112 1.155C38.379 1.70762 39.7086 2.57348 40.8076 3.69234C41.9266 4.7912 42.7926 6.12092 43.345 7.58878C43.8888 8.98822 44.2604 10.5881 44.368 12.9299C44.4756 15.2766 44.5 16.0246 44.5 22C44.5 27.9754 44.4744 28.7234 44.368 31.0702C44.2616 33.4118 43.8888 35.0118 43.345 36.4112C42.7828 37.8572 42.0298 39.0854 40.8076 40.3076C39.7088 41.4266 38.379 42.2926 36.9112 42.845C35.5118 43.3888 33.9118 43.7604 31.5702 43.868C29.2234 43.9756 28.4754 44 22.5 44C16.5246 44 15.7766 43.9744 13.4299 43.868C11.0881 43.7616 9.48822 43.3888 8.08878 42.845C6.64288 42.2828 5.41456 41.5298 4.19234 40.3076C3.07328 39.2088 2.20736 37.879 1.655 36.4112C1.11112 35.0118 0.73956 33.4118 0.632 31.0702C0.52444 28.7234 0.5 27.9766 0.5 22C0.5 16.0233 0.52566 15.2766 0.632 12.9311C0.73834 10.5881 1.11112 8.98822 1.655 7.58878C2.20762 6.12102 3.07348 4.79136 4.19234 3.69234C5.29118 2.57328 6.6209 1.70736 8.08878 1.155C9.48822 0.61112 11.0881 0.23956 13.4299 0.132ZM31.3904 4.092C29.0706 3.98688 28.374 3.96366 22.5 3.96366C16.626 3.96366 15.9293 3.98688 13.6096 4.092C11.4646 4.18978 10.2998 4.54788 9.52488 4.84978C8.49822 5.24822 7.76488 5.72488 6.99488 6.49488C6.22612 7.26488 5.74822 7.99822 5.34978 9.02488C5.04788 9.79978 4.68978 10.9646 4.592 13.1096C4.48688 15.4293 4.46366 16.126 4.46366 22C4.46366 27.874 4.48688 28.5706 4.592 30.8904C4.68978 33.0354 5.04788 34.2002 5.34978 34.9752C5.70222 35.9308 6.26438 36.7952 6.99488 37.5052C7.70468 38.2356 8.56922 38.7978 9.52488 39.1502C10.2998 39.4522 11.4646 39.8102 13.6096 39.908C15.9293 40.0132 16.6248 40.0364 22.5 40.0364C28.3752 40.0364 29.0706 40.0132 31.3904 39.908C33.5354 39.8102 34.7002 39.4522 35.4752 39.1502C36.5018 38.7518 37.2352 38.2752 38.0052 37.5052C38.7356 36.7954 39.2978 35.9308 39.6502 34.9752C39.9522 34.2002 40.3102 33.0354 40.408 30.8904C40.5132 28.5706 40.5364 27.874 40.5364 22C40.5364 16.126 40.5132 15.4293 40.408 13.1096C40.3102 10.9646 39.9522 9.79978 39.6502 9.02488C39.2518 7.99822 38.7752 7.26488 38.0052 6.49488C37.2352 5.72612 36.5018 5.24822 35.4752 4.84978C34.7002 4.54788 33.5354 4.18978 31.3904 4.092ZM19.691 28.7818C20.5816 29.1508 21.536 29.3406 22.5 29.3406C24.447 29.3406 26.314 28.5672 27.6906 27.1906C29.0674 25.814 29.8408 23.9468 29.8408 22C29.8408 20.0532 29.0674 18.186 27.6906 16.8094C26.314 15.4327 24.447 14.6593 22.5 14.6593C21.536 14.6593 20.5816 14.8492 19.691 15.2181C18.8002 15.587 17.9911 16.1277 17.3094 16.8094C16.6278 17.491 16.0871 18.3002 15.7182 19.1908C15.3493 20.0814 15.1594 21.036 15.1594 22C15.1594 22.964 15.3493 23.9186 15.7182 24.8092C16.0871 25.6998 16.6278 26.509 17.3094 27.1906C17.9911 27.8722 18.8002 28.413 19.691 28.7818ZM14.5041 14.004C16.6248 11.8834 19.501 10.692 22.5 10.692C25.4992 10.692 28.3754 11.8834 30.496 14.004C32.6166 16.1247 33.808 19.001 33.808 22C33.808 24.999 32.6166 27.8752 30.496 29.996C28.3754 32.1166 25.4992 33.308 22.5 33.308C19.501 33.308 16.6248 32.1166 14.5041 29.996C12.3834 27.8752 11.1921 24.999 11.1921 22C11.1921 19.001 12.3834 16.1247 14.5041 14.004ZM36.3154 12.3768C36.8166 11.8755 37.0982 11.1956 37.0982 10.4867C37.0982 9.77772 36.8166 9.09784 36.3154 8.59656C35.814 8.09528 35.1342 7.81366 34.4252 7.81366C33.7164 7.81366 33.0364 8.09528 32.5352 8.59656C32.0338 9.09784 31.7522 9.77772 31.7522 10.4867C31.7522 11.1956 32.0338 11.8755 32.5352 12.3768C33.0364 12.878 33.7164 13.1597 34.4252 13.1597C35.1342 13.1597 35.814 12.878 36.3154 12.3768Z" fill="white"/>
</svg>
