<svg width="34" height="29" viewBox="0 0 34 29" fill="none" xmlns="http://www.w3.org/2000/svg">
<path d="M17 29.0005C16.7806 29.0018 16.5632 28.9597 16.3601 28.8768C16.157 28.7939 15.9723 28.6717 15.8166 28.5172L2.86662 15.5505C1.24222 13.9091 0.331055 11.6931 0.331055 9.38385C0.331055 7.07457 1.24222 4.85856 2.86662 3.21718C4.50372 1.5847 6.72133 0.667969 9.03328 0.667969C11.3452 0.667969 13.5628 1.5847 15.2 3.21718L17 5.01718L18.7999 3.21718C20.4371 1.5847 22.6547 0.667969 24.9666 0.667969C27.2786 0.667969 29.4962 1.5847 31.1333 3.21718C32.7577 4.85856 33.6688 7.07457 33.6688 9.38385C33.6688 11.6931 32.7577 13.9091 31.1333 15.5505L18.1833 28.5172C18.0275 28.6717 17.8429 28.7939 17.6398 28.8768C17.4367 28.9597 17.2193 29.0018 17 29.0005ZM9.03328 4.00052C8.32774 3.99732 7.62858 4.13415 6.9763 4.40307C6.32401 4.672 5.73157 5.06768 5.23328 5.56718C4.22672 6.57905 3.66168 7.94826 3.66168 9.37552C3.66168 10.8028 4.22672 12.172 5.23328 13.1839L17 24.9672L28.7666 13.1839C29.7732 12.172 30.3382 10.8028 30.3382 9.37552C30.3382 7.94826 29.7732 6.57905 28.7666 5.56718C27.7394 4.5967 26.3798 4.05601 24.9666 4.05601C23.5535 4.05601 22.1938 4.5967 21.1666 5.56718L18.1833 8.56718C18.0283 8.7234 17.844 8.84739 17.6409 8.932C17.4378 9.01662 17.22 9.06018 17 9.06018C16.7799 9.06018 16.5621 9.01662 16.359 8.932C16.1559 8.84739 15.9716 8.7234 15.8166 8.56718L12.8333 5.56718C12.335 5.06768 11.7426 4.672 11.0903 4.40307C10.438 4.13415 9.73882 3.99732 9.03328 4.00052Z" fill="#DC0830"/>
</svg>
