<svg width="147" height="25" viewBox="0 0 147 25" fill="none" xmlns="http://www.w3.org/2000/svg">
<path d="M0.833125 24.5V2.1H5.08913L11.2971 16.276L17.4091 2.1H21.7611V24.5H18.7211V5.972L12.7371 19.444H9.72913L3.71313 5.972V24.5H0.833125ZM27.2006 24.5V7.86H30.0806V24.5H27.2006ZM28.6406 5.012C28.086 5.012 27.606 4.80933 27.2006 4.404C26.8166 3.99867 26.6246 3.52933 26.6246 2.996C26.6246 2.37733 26.806 1.88667 27.1686 1.524C27.5313 1.16133 28.022 0.98 28.6406 0.98C29.1953 0.98 29.6646 1.18267 30.0486 1.588C30.454 1.972 30.6566 2.44133 30.6566 2.996C30.6566 3.59333 30.4753 4.084 30.1126 4.468C29.75 4.83067 29.2593 5.012 28.6406 5.012ZM35.2006 24.5V7.86H37.9846V10.644C38.582 9.748 39.3393 9.00133 40.2566 8.404C41.1953 7.78533 42.3046 7.476 43.5846 7.476C45.462 7.476 46.8593 8.04133 47.7766 9.172C48.7153 10.3027 49.1846 11.796 49.1846 13.652V24.5H46.3046V13.972C46.3046 12.7773 46.0166 11.8173 45.4406 11.092C44.886 10.3667 44.1073 10.004 43.1046 10.004C42.1233 10.004 41.1953 10.356 40.3206 11.06C39.446 11.7427 38.6993 12.5533 38.0806 13.492V24.5H35.2006ZM58.6181 24.884C57.3595 24.884 56.2181 24.724 55.1941 24.404C54.1915 24.084 53.3595 23.668 52.6981 23.156L53.9141 20.756C54.4688 21.2253 55.1621 21.62 55.9941 21.94C56.8475 22.2387 57.7541 22.388 58.7141 22.388C59.9088 22.388 60.8048 22.196 61.4021 21.812C62.0208 21.4067 62.3301 20.8947 62.3301 20.276C62.3301 19.828 62.2128 19.4333 61.9781 19.092C61.7648 18.7507 61.3595 18.42 60.7621 18.1C60.1648 17.7587 59.3008 17.396 58.1701 17.012C56.6128 16.4787 55.4395 15.8493 54.6501 15.124C53.8821 14.3773 53.4981 13.3533 53.4981 12.052C53.4981 10.772 54.0528 9.69467 55.1621 8.82C56.2928 7.924 57.8501 7.476 59.8341 7.476C60.9008 7.476 61.8501 7.59333 62.6821 7.828C63.5141 8.04133 64.2608 8.31867 64.9221 8.66L64.1221 11.028C63.5461 10.6867 62.8848 10.4093 62.1381 10.196C61.4128 9.98267 60.6021 9.876 59.7061 9.876C58.5968 9.876 57.7541 10.1 57.1781 10.548C56.6021 10.996 56.3141 11.4867 56.3141 12.02C56.3141 12.532 56.5381 12.9693 56.9861 13.332C57.4341 13.6947 58.3088 14.0893 59.6101 14.516C61.7221 15.22 63.1941 15.9987 64.0261 16.852C64.8581 17.7053 65.2741 18.772 65.2741 20.052C65.2741 21.5453 64.6661 22.7293 63.4501 23.604C62.2555 24.4573 60.6448 24.884 58.6181 24.884ZM80.5949 24.82L71.9869 15.956V24.5H69.1069V0.82H71.9869V14.356L79.5069 7.54L81.1709 9.364L74.7389 15.06L82.5789 22.9L80.5949 24.82ZM90.0906 24.5V4.788H83.2106V2.1H100.011V4.788H93.1306V24.5H90.0906ZM106.825 24.884C104.436 24.884 102.537 24.1267 101.129 22.612C99.7427 21.076 99.0494 18.932 99.0494 16.18C99.0494 14.516 99.3587 13.0333 99.9774 11.732C100.617 10.4093 101.503 9.37467 102.633 8.628C103.764 7.86 105.076 7.476 106.569 7.476C108.169 7.476 109.492 7.828 110.537 8.532C111.604 9.21467 112.404 10.1427 112.937 11.316C113.471 12.4893 113.737 13.78 113.737 15.188C113.737 15.9347 113.705 16.66 113.641 17.364H101.993C102.185 18.9213 102.729 20.1373 103.625 21.012C104.521 21.8867 105.705 22.324 107.177 22.324C108.137 22.324 109.001 22.228 109.769 22.036C110.537 21.8227 111.273 21.556 111.977 21.236L112.649 23.7C111.881 24.0413 111.017 24.3187 110.057 24.532C109.097 24.7667 108.02 24.884 106.825 24.884ZM101.961 15.028H111.081C111.081 13.4067 110.676 12.1587 109.865 11.284C109.055 10.4093 107.935 9.972 106.505 9.972C105.268 9.972 104.244 10.4093 103.433 11.284C102.623 12.1373 102.132 13.3853 101.961 15.028ZM124.296 24.884C122.717 24.884 121.33 24.5213 120.136 23.796C118.962 23.0493 118.056 22.0253 117.416 20.724C116.776 19.4013 116.456 17.8867 116.456 16.18C116.456 14.58 116.776 13.1187 117.416 11.796C118.077 10.4733 119.016 9.428 120.232 8.66C121.448 7.87067 122.877 7.476 124.52 7.476C125.458 7.476 126.28 7.56133 126.984 7.732C127.709 7.90267 128.402 8.148 129.064 8.468L128.2 10.9C127.602 10.6013 127.026 10.388 126.472 10.26C125.938 10.1107 125.341 10.036 124.68 10.036C123.186 10.036 121.928 10.58 120.904 11.668C119.901 12.7347 119.4 14.2173 119.4 16.116C119.4 17.268 119.613 18.3133 120.04 19.252C120.466 20.1907 121.053 20.9373 121.8 21.492C122.568 22.0467 123.464 22.324 124.488 22.324C125.298 22.324 125.992 22.2387 126.568 22.068C127.144 21.876 127.762 21.6093 128.424 21.268L129.32 23.7C128.658 24.0627 127.912 24.3507 127.08 24.564C126.269 24.7773 125.341 24.884 124.296 24.884ZM132.669 24.5V0.82H135.549V10.516C136.147 9.64133 136.904 8.916 137.821 8.34C138.739 7.764 139.816 7.476 141.053 7.476C142.931 7.476 144.328 8.04133 145.245 9.172C146.184 10.3027 146.653 11.796 146.653 13.652V24.5H143.773V13.972C143.773 12.7773 143.496 11.8173 142.941 11.092C142.387 10.3667 141.608 10.004 140.605 10.004C139.624 10.004 138.685 10.356 137.789 11.06C136.915 11.7427 136.168 12.5533 135.549 13.492V24.5H132.669Z" fill="white"/>
</svg>
