<svg width="45" height="44" viewBox="0 0 45 44" fill="none" xmlns="http://www.w3.org/2000/svg">
<path fill-rule="evenodd" clip-rule="evenodd" d="M44.5 22C44.5 34.1502 34.6502 44 22.5 44C10.3497 44 0.5 34.1502 0.5 22C0.5 9.84973 10.3497 0 22.5 0C34.6502 0 44.5 9.84973 44.5 22ZM23.2883 16.2414C21.1487 17.1314 16.8719 18.9735 10.4585 21.7677C9.41706 22.1819 8.87151 22.587 8.82185 22.9832C8.7379 23.6528 9.57634 23.9164 10.7181 24.2754C10.8734 24.3243 11.0343 24.3749 11.1993 24.4284C12.3225 24.7936 13.8335 25.2208 14.6191 25.2377C15.3316 25.2531 16.1269 24.9594 17.0049 24.3564C22.9972 20.3115 26.0904 18.267 26.2845 18.2229C26.4217 18.1918 26.6114 18.1527 26.7401 18.2671C26.8687 18.3814 26.8562 18.5979 26.8424 18.656C26.7594 19.01 23.4682 22.0699 21.765 23.6533C21.2341 24.1468 20.8575 24.497 20.7805 24.5769C20.608 24.7562 20.4322 24.9256 20.2633 25.0884C19.2198 26.0944 18.4372 26.8488 20.3066 28.0808C21.2051 28.6728 21.924 29.1623 22.6412 29.6507C23.4244 30.1842 24.2055 30.7162 25.2163 31.3788C25.4739 31.5476 25.7197 31.7229 25.9593 31.8936C26.8708 32.5435 27.6898 33.1272 28.7014 33.0341C29.2894 32.98 29.8966 32.4273 30.205 30.7787C30.9337 26.8825 32.3663 18.4406 32.6974 14.9618C32.7265 14.657 32.69 14.2669 32.6607 14.0957C32.6314 13.9245 32.5701 13.6805 32.3476 13.4999C32.0839 13.2861 31.6771 13.241 31.4951 13.2441C30.6675 13.2587 29.3981 13.7002 23.2883 16.2414Z" fill="white"/>
</svg>
