<svg width="44" height="44" viewBox="0 0 44 44" fill="none" xmlns="http://www.w3.org/2000/svg">
<g clip-path="url(#clip0_586_959)">
<path d="M43.3446 26.8944L36.8796 13.7012H39.7585C39.9563 13.7012 40.146 13.6227 40.2858 13.4828C40.4257 13.343 40.5042 13.1533 40.5042 12.9555C40.5042 12.7577 40.4257 12.568 40.2858 12.4281C40.146 12.2883 39.9563 12.2097 39.7585 12.2097H22.7458V9.10362C24.8291 8.73465 26.4199 6.84955 26.4199 4.58495C26.4199 2.05663 24.4372 0 22 0C19.5628 0 17.5801 2.05663 17.5801 4.58495C17.5801 6.84955 19.1709 8.73465 21.2542 9.10352V12.2096H4.24153C4.04374 12.2096 3.85405 12.2882 3.71419 12.4281C3.57433 12.5679 3.49576 12.7576 3.49576 12.9554C3.49576 13.1532 3.57433 13.3429 3.71419 13.4827C3.85405 13.6226 4.04374 13.7012 4.24153 13.7012H7.12045L0.655805 26.8945C0.475038 26.9165 0.30856 27.0039 0.187756 27.1401C0.0669523 27.2764 0.000170045 27.4521 0 27.6342C0 31.8646 3.68509 35.3064 8.21504 35.3064C12.745 35.3064 16.4301 31.8645 16.4301 27.6343C16.43 27.4522 16.3633 27.2765 16.2426 27.1401C16.1218 27.0038 15.9554 26.9164 15.7747 26.8943L9.30964 13.7012H21.2542V38.3114H10.7298C10.5295 38.3142 10.3383 38.3954 10.1971 38.5375C10.0559 38.6796 9.97604 38.8714 9.97458 39.0717V42.6905C9.97644 42.8896 10.0568 43.0799 10.1983 43.2199C10.3397 43.36 10.5308 43.4386 10.7298 43.4385H33.2702C33.4692 43.4386 33.6603 43.36 33.8017 43.2199C33.9432 43.0799 34.0236 42.8896 34.0254 42.6905V39.0717C34.0239 38.8714 33.944 38.6797 33.8028 38.5376C33.6616 38.3955 33.4704 38.3143 33.2702 38.3114H22.7458V13.7012H34.6904L28.2253 26.8944C28.0445 26.9165 27.8781 27.0039 27.7574 27.1402C27.6366 27.2765 27.5699 27.4522 27.5698 27.6343C27.5698 31.8647 31.2549 35.3065 35.7849 35.3065C40.3148 35.3065 44 31.8646 44 27.6344C43.9999 27.4523 43.9332 27.2765 43.8125 27.1402C43.6918 27.0039 43.5253 26.9165 43.3446 26.8944ZM19.0716 4.58495C19.0716 2.8793 20.3854 1.49153 22 1.49153C23.6146 1.49153 24.9284 2.8793 24.9284 4.58495C24.9284 6.29088 23.6146 7.67865 22 7.67865C20.3854 7.67865 19.0716 6.29088 19.0716 4.58495ZM8.21504 14.8133L14.1105 26.8452H2.3196L8.21504 14.8133ZM8.21504 33.7716C4.7823 33.7716 1.94197 31.4131 1.54028 28.3368H14.8898C14.4881 31.4131 11.6478 33.7716 8.21504 33.7716ZM32.5339 41.947H11.4661V39.8029H32.5339V41.947ZM41.6804 26.8453H29.8895L35.785 14.8134L41.6804 26.8453ZM35.785 33.7716C32.3522 33.7716 29.5119 31.4131 29.1102 28.3368H42.4597C42.058 31.4131 39.2177 33.7716 35.785 33.7716Z" fill="#DC0830"/>
</g>
<defs>
<clipPath id="clip0_586_959">
<rect width="44" height="44" fill="white"/>
</clipPath>
</defs>
</svg>
