<svg width="45" height="30" viewBox="0 0 45 30" fill="none" xmlns="http://www.w3.org/2000/svg">
<path d="M43.5822 4.92925C43.3398 4.05081 42.856 3.24766 42.1793 2.60033C41.5024 1.953 40.6565 1.48423 39.7261 1.24102C36.2833 0.335134 22.4887 0.335134 22.4887 0.335134C16.7368 0.270179 10.9864 0.558361 5.27438 1.19788C4.34369 1.45886 3.49912 1.93842 2.82042 2.59131C2.14173 3.24418 1.65129 4.04881 1.3954 4.92925C0.778294 8.25501 0.47872 11.626 0.500255 15.0017C0.477243 18.3776 0.776829 21.7488 1.3954 25.0744C1.64603 25.9524 2.13541 26.7541 2.81549 27.4009C3.49557 28.0475 4.34293 28.5167 5.27438 28.7625C8.76317 29.6684 22.4887 29.6684 22.4887 29.6684C28.2483 29.7335 34.0065 29.4453 39.7261 28.8056C40.6565 28.5625 41.5024 28.0937 42.1793 27.4464C42.856 26.799 43.3398 25.9959 43.5822 25.1175C44.215 21.7933 44.5223 18.4218 44.5003 15.045C44.5478 11.653 44.2401 8.26472 43.5822 4.92925ZM18.1049 21.2783V8.72533L29.5812 15.0017L18.1049 21.2783Z" fill="white"/>
</svg>
